<svg xmlns="http://www.w3.org/2000/svg" width="1200" height="675" viewBox="0 0 1200 675" role="img" aria-labelledby="t d">
  <title id="t">Diplôme du Pire pronostiqueur de l’année</title>
  <desc id="d">0 bonne intuition, 100 % de confiance.</desc>
  <defs>
    <linearGradient id="paper" x1="0" y1="0" x2="1" y2="1">
      <stop offset="0" stop-color="#fffdf6"/><stop offset="1" stop-color="#e8eef5"/>
    </linearGradient>
    <radialGradient id="glow"><stop offset="0" stop-color="#174c8c" stop-opacity=".18"/><stop offset="1" stop-color="#174c8c" stop-opacity="0"/></radialGradient>
    <clipPath id="botClip"><rect x="835" y="136" width="270" height="270" rx="54"/></clipPath>
    <filter id="shadow"><feDropShadow dx="0" dy="8" stdDeviation="8" flood-opacity=".18"/></filter>
  </defs>
  <rect width="1200" height="675" rx="26" fill="url(#paper)"/>
  <rect x="20" y="20" width="1160" height="635" rx="20" fill="none" stroke="#174c8c" stroke-width="5"/>
  <rect x="35" y="35" width="1130" height="605" rx="16" fill="none" stroke="#b9904f" stroke-width="2"/>
  <circle cx="980" cy="310" r="260" fill="url(#glow)"/>
  <g fill="none" stroke="#b9904f" stroke-width="4" opacity=".8">
    <path d="M74 118 C130 72, 194 74, 238 114"/><path d="M74 550 C130 596, 194 594, 238 554"/>
  </g>
  <g transform="translate(72 62)" filter="url(#shadow)">
    <circle cx="46" cy="46" r="43" fill="#174c8c" stroke="#fff6d6" stroke-width="5"/>
    <text x="46" y="59" text-anchor="middle" font-family="Georgia,serif" font-size="42" font-weight="900" fill="white">2</text>
    <path d="M18 82 L30 128 L48 110 L66 128 L76 82" fill="#315a94"/>
  </g>
  <text x="170" y="100" font-family="Georgia,serif" font-size="31" font-weight="800" fill="#2d241e" letter-spacing="2">DIPLÔME OFFICIEL BETGPT</text>
  <line x1="170" y1="119" x2="730" y2="119" stroke="#b9904f" stroke-width="2"/>
  <g font-family="Georgia,serif"><text x="88" y="170" font-size="54" font-weight="900" fill="#174c8c" letter-spacing="1">PIRE PRONOSTIQUEUR</text><text x="88" y="234" font-size="54" font-weight="900" fill="#174c8c" letter-spacing="1">DE L’ANNÉE</text><text x="92" y="370" font-size="28" font-style="italic" fill="#4d3a2d">0 bonne intuition,</text><text x="92" y="408" font-size="28" font-style="italic" fill="#4d3a2d">100 % de confiance.</text></g>
  <g filter="url(#shadow)">
    <rect x="815" y="116" width="310" height="310" rx="68" fill="#111827" stroke="#174c8c" stroke-width="8"/>
    <image href="/betgpt-mascot-avatar.webp" x="835" y="136" width="270" height="270" preserveAspectRatio="xMidYMid slice" clip-path="url(#botClip)"/>
  </g>
  <g transform="translate(812 458)">
    <rect width="318" height="108" rx="22" fill="#fffdf6" stroke="#174c8c" stroke-width="3"/>
    <text x="159" y="38" text-anchor="middle" font-family="Arial,sans-serif" font-size="18" font-weight="900" fill="#1f2937">BOULE DE CRISTAL EN RTT</text>
    <text x="159" y="72" text-anchor="middle" font-family="Arial,sans-serif" font-size="15" font-weight="700" fill="#6b5a45">CERTIFIÉ PAR LE PETIT ROBOT</text>
  </g>
  <text x="90" y="612" font-family="Arial,sans-serif" font-size="18" font-weight="800" fill="#6b5a45">Honneur discutable • Humour 100 % BetGPT • Aucun remboursement d’ego</text>
</svg>